<svg width="38" height="36" viewBox="0 0 38 36" fill="none" xmlns="http://www.w3.org/2000/svg">
<path d="M33.0927 0H4.47199C2.00345 0 0 1.8816 0 4.2V31.08C0 33.3984 2.00345 35.28 4.47199 35.28H33.0927C35.5613 35.28 37.5647 33.3984 37.5647 31.08V4.2C37.5647 1.8816 35.5613 0 33.0927 0ZM11.6272 13.44V29.4H6.26079V13.44H11.6272ZM6.26079 8.7948C6.26079 7.6188 7.33407 6.72 8.94398 6.72C10.5539 6.72 11.5646 7.6188 11.6272 8.7948C11.6272 9.9708 10.6255 10.92 8.94398 10.92C7.33407 10.92 6.26079 9.9708 6.26079 8.7948ZM31.3039 29.4H25.9375C25.9375 29.4 25.9375 21.6216 25.9375 21C25.9375 19.32 25.0432 17.64 22.8072 17.6064H22.7356C20.5712 17.6064 19.6768 19.3368 19.6768 21C19.6768 21.7644 19.6768 29.4 19.6768 29.4H14.3104V13.44H19.6768V15.5904C19.6768 15.5904 21.403 13.44 24.8732 13.44C28.424 13.44 31.3039 15.7332 31.3039 20.3784V29.4Z" fill="white"/>
</svg>
