<svg width="143" height="78" viewBox="0 0 143 78" fill="none" xmlns="http://www.w3.org/2000/svg">
<mask id="mask0_25_19" style="mask-type:luminance" maskUnits="userSpaceOnUse" x="0" y="0" width="143" height="78">
<path d="M0 0H143V77.2048H0V0Z" fill="white"/>
</mask>
<g mask="url(#mask0_25_19)">
<path d="M0.000214225 27.5783C0.000214225 25.0813 0.304089 22.6697 0.913825 20.3393C1.50417 18.0571 2.3814 15.8628 3.52358 13.8115C4.64327 11.8046 6.00297 9.94824 7.57127 8.28523C9.12398 6.6341 10.8838 5.20078 12.8047 4.02271C14.7233 2.84432 16.7829 1.93005 18.9854 1.27584C21.2258 0.617419 23.5463 0.287702 25.8773 0.296561C28.2705 0.296561 30.5406 0.621633 32.7532 1.27584C34.9677 1.93005 37.0332 2.84635 38.9518 4.02271C40.8704 5.2011 42.6162 6.61923 44.1872 8.28319C45.7562 9.94919 47.0989 11.7919 48.219 13.8115C49.3352 15.833 50.2051 18.009 50.8268 20.3393C51.4464 22.6697 51.7563 25.0813 51.7563 27.5783C51.7563 30.0753 51.4464 32.5153 50.8248 34.8355C50.2247 37.1025 49.3486 39.2833 48.217 41.3268C45.9912 45.3319 42.8019 48.6888 38.9518 51.079C35.0079 53.5169 30.4853 54.8002 25.8773 54.7889C21.2695 54.8024 16.747 53.519 12.8047 51.079C10.8891 49.8939 9.13029 48.462 7.57127 46.8185C6.00314 45.1681 4.64332 43.3231 3.52358 41.3268C2.38193 39.2881 1.50464 37.106 0.913825 34.8355C0.297903 32.4682 -0.00929637 30.028 0.000214225 27.5783ZM12.8027 27.5417C12.8027 29.5409 13.1364 31.3999 13.8017 33.1228C14.4345 34.7915 15.3713 36.3221 16.5624 37.6332C17.7344 38.9166 19.1449 39.9478 20.7114 40.6665C22.3468 41.4128 24.1203 41.7898 25.911 41.7718C27.7859 41.7718 29.4959 41.4041 31.1107 40.6665C32.6904 39.9548 34.1132 38.9238 35.2934 37.6352C36.4851 36.3215 37.4267 34.7919 38.07 33.1249C38.7574 31.3482 39.1026 29.4524 39.0869 27.5417C39.0869 25.5466 38.7492 23.7099 38.07 21.9606C37.4306 20.2758 36.4889 18.7281 35.2934 17.3974C34.1142 16.0984 32.6918 15.0551 31.1107 14.3295C29.4768 13.5764 27.7031 13.1931 25.911 13.206C24.058 13.206 22.3023 13.5798 20.7114 14.3295C19.1434 15.061 17.7331 16.1038 16.5624 17.3974C15.3679 18.7259 14.431 20.2744 13.8017 21.9606C13.1301 23.7406 12.7912 25.6338 12.8027 27.5417Z" fill="#F4F4F4"/>
<path d="M69.2511 42.2596H84.4945C84.9453 42.2596 85.3167 42.3916 85.6107 42.6537C85.9046 42.9158 86.0516 43.3201 86.0516 43.8667V52.1763C86.0494 52.6345 85.8874 53.0769 85.5948 53.4238C85.4618 53.6026 85.2898 53.7471 85.0926 53.8458C84.8954 53.9446 84.6783 53.9949 84.4587 53.9927H53.2629C52.8339 53.9927 52.4387 53.8098 52.0792 53.44C51.909 53.2782 51.7731 53.0823 51.6799 52.8646C51.5866 52.6469 51.538 52.412 51.537 52.1743V46.8594C51.537 46.5282 51.6164 46.2072 51.7753 45.8963L72.3315 20.0409C72.9433 19.3054 73.3246 18.6735 73.4855 18.1514C73.6444 17.6292 73.7238 17.0461 73.7238 16.4041C73.7377 15.666 73.5869 14.9343 73.2829 14.2647C73.0081 13.6713 72.6158 13.1427 72.1309 12.7125C71.6616 12.2996 71.1215 11.9793 70.5381 11.7678C69.9622 11.5556 69.3547 11.447 68.7426 11.4467C68.0674 11.4467 67.4278 11.589 66.83 11.8734C66.2302 12.1578 65.7059 12.5459 65.253 13.0335C64.8022 13.5211 64.4387 14.0798 64.1706 14.7097C63.9033 15.3207 63.7646 15.9825 63.7635 16.652V18.6146C63.7635 18.9945 63.6165 19.3745 63.3225 19.7564C63.0286 20.1363 62.6115 20.3253 62.0713 20.3253H53.3979C52.8339 20.3253 52.4446 20.1648 52.2301 19.8458C52.0231 19.5492 51.9107 19.1944 51.9084 18.83V16.975C51.9084 14.478 52.3473 12.1903 53.2291 10.1099C54.066 8.09519 55.2867 6.27114 56.82 4.74415C58.3429 3.2399 60.1372 2.05302 62.1031 1.24962C64.1485 0.409883 66.3341 -0.0145095 68.5381 0.000121676C70.8221 0.000121676 73.0902 0.386146 75.2114 1.15819C77.3346 1.93024 79.2035 3.02533 80.8182 4.4394C82.438 5.86097 83.7531 7.60957 84.6812 9.57555C85.6405 11.5869 86.1211 13.836 86.1211 16.333C86.1211 17.617 85.9721 18.8239 85.6802 19.9535C85.3957 21.0541 85.0038 22.1228 84.5104 23.1433C84.0369 24.124 83.4821 25.0613 82.852 25.945C82.2303 26.8125 81.5809 27.6394 80.9036 28.4237L69.2511 42.2596ZM105.404 42.2819H120.648C121.098 42.2819 121.47 42.414 121.766 42.6761C122.058 42.9382 122.203 43.3425 122.203 43.889V52.1987C122.2 52.6562 122.038 53.0978 121.746 53.4441C121.614 53.6227 121.442 53.7673 121.246 53.8664C121.049 53.9655 120.833 54.0164 120.614 54.015H89.4161C88.9871 54.015 88.5918 53.8322 88.2323 53.4624C88.0622 53.3005 87.9263 53.1047 87.8331 52.887C87.7398 52.6693 87.6912 52.4343 87.6901 52.1966V46.8817C87.6901 46.5505 87.7696 46.2295 87.9285 45.9187L108.485 20.0632C109.094 19.3277 109.478 18.6959 109.637 18.1737C109.796 17.6516 109.875 17.0685 109.875 16.4265C109.875 15.6178 109.726 14.9027 109.434 14.285C109.159 13.6924 108.767 13.1645 108.282 12.7348C107.813 12.3219 107.273 12.0016 106.689 11.7901C106.113 11.578 105.506 11.4694 104.894 11.4691C104.219 11.4691 103.579 11.6113 102.981 11.8958C102.389 12.1761 101.855 12.5691 101.406 13.0538C100.953 13.5435 100.592 14.1022 100.322 14.732C100.054 15.3431 99.9157 16.0048 99.9146 16.6743V18.6369C99.9146 19.0169 99.7677 19.3968 99.4737 19.7767C99.1798 20.1587 98.7627 20.3476 98.2225 20.3476H89.5491C88.9851 20.3476 88.5958 20.1871 88.3813 19.8661C88.1742 19.5695 88.0619 19.2147 88.0596 18.8503V16.9974C88.0596 14.4984 88.4985 12.2127 89.3803 10.1302C90.2174 8.11623 91.4381 6.29289 92.9712 4.7665C94.4937 3.26075 96.288 2.07247 98.2543 1.26791C100.301 0.428295 102.488 0.00458179 104.693 0.0204387C106.975 0.0204387 109.243 0.406463 111.367 1.17851C113.417 1.90851 115.317 3.02105 116.971 4.45971C118.59 5.88149 119.905 7.63008 120.832 9.59586C121.792 11.6052 122.272 13.8563 122.272 16.3533C122.272 17.6374 122.125 18.8442 121.831 19.9718C121.548 21.0737 121.156 22.1437 120.664 23.1656C120.189 24.1453 119.633 25.0819 119.003 25.9653C118.382 26.8328 117.732 27.6597 117.057 28.444L105.404 42.2799V42.2819ZM123.728 6.47516C123.728 5.57309 124.225 4.83558 125.218 4.26467L129.825 1.87539C130.411 1.47108 130.987 1.23337 131.553 1.16429C132.272 1.08437 132.995 1.04841 133.718 1.05661H141.375C141.826 1.05661 142.209 1.19883 142.527 1.48327C142.683 1.62583 142.807 1.80219 142.889 1.99964C142.971 2.19708 143.01 2.4107 143.001 2.62508V52.4465C143.001 53.4929 142.469 54.015 141.408 54.015H131.79C131.224 54.015 130.836 53.8545 130.62 53.5335C130.413 53.2369 130.3 52.8821 130.298 52.5177V13.2143L125.659 15.6402C125.545 15.6869 124.554 15.9774 124.084 15.3192C123.842 14.9766 123.717 14.5629 123.726 14.1408V6.4772L123.728 6.47516ZM49.0762 73.3386C49.0762 73.172 49.1179 73.0399 49.2053 72.9404C49.2927 72.8408 49.4237 72.792 49.5965 72.792H52.7207C52.8538 72.792 52.9789 72.8408 53.0941 72.9404C53.2093 73.0419 53.2649 73.172 53.2649 73.3386V76.3455C53.2669 76.4903 53.2191 76.6313 53.1298 76.7437C53.0385 76.8595 52.9014 76.9184 52.7207 76.9184H49.5965C49.249 76.9184 49.0762 76.7274 49.0762 76.3455V73.3386ZM64.399 72.0606C64.491 71.9866 64.5973 71.9333 64.7108 71.9042C64.7866 71.8869 64.8637 71.8767 64.9412 71.8737C65.0682 71.8717 65.1937 71.9017 65.3067 71.9611C65.4179 72.018 65.5331 72.1439 65.6503 72.3329L66.973 74.4337C67.0147 74.5057 67.0518 74.5803 67.0842 74.6571C67.12 74.7384 67.1379 74.8055 67.1379 74.8562C67.1379 75.0452 67.0822 75.2016 66.9671 75.3215C66.8548 75.4405 66.7303 75.5468 66.5957 75.6385C65.9431 76.1145 65.2301 76.4972 64.4765 76.7762C63.7098 77.0606 62.8955 77.2029 62.0395 77.2029C60.6713 77.207 59.3282 76.8268 58.1567 76.1037C57.5875 75.7499 57.0643 75.3239 56.5996 74.8359C56.128 74.3446 55.7226 73.7912 55.394 73.1902C54.7027 71.9205 54.3409 70.4908 54.3433 69.0374C54.3433 68.2756 54.4367 67.5421 54.6214 66.8371C54.7982 66.1542 55.0585 65.4969 55.396 64.8806C56.0555 63.6856 57.0067 62.686 58.1567 61.9793C59.3299 61.261 60.6722 60.8831 62.0395 60.8862C62.8975 60.8862 63.688 61.0061 64.4189 61.2459C65.1458 61.4876 65.829 61.8432 66.4646 62.3166L66.4308 62.278C66.592 62.375 66.7325 62.5042 66.8439 62.6579C66.9423 62.8046 66.9959 62.9779 66.998 63.1558C67.0001 63.3338 66.9507 63.5083 66.8558 63.6575L65.8032 65.5348C65.5847 65.9411 65.3166 66.1443 65.0028 66.1443C64.9136 66.1402 64.8257 66.121 64.7426 66.0874C64.6201 66.0393 64.5045 65.9743 64.399 65.8944C64.0514 65.6541 63.6775 65.4563 63.2848 65.3052C62.879 65.1499 62.449 65.0714 62.0157 65.0736C61.5192 65.0736 61.0624 65.1792 60.6453 65.3905C60.2282 65.6018 59.8727 65.8903 59.5787 66.254C59.2808 66.6197 59.0524 67.0423 58.8856 67.5218C58.7197 68.009 58.6364 68.5216 58.6393 69.0374C58.6393 69.5677 58.7207 70.096 58.8856 70.5734C59.0524 71.0488 59.2828 71.4613 59.5787 71.8087C59.8816 72.1654 60.256 72.4511 60.6766 72.6464C61.0971 72.8417 61.5538 72.9419 62.0157 72.9404C62.4645 72.9404 62.8856 72.8591 63.2789 72.6925C63.6721 72.5259 64.0455 72.3146 64.401 72.0566L64.399 72.0606ZM67.5986 69.0395C67.5934 67.5837 67.9575 66.1514 68.6553 64.8826C68.9864 64.2858 69.3909 63.7348 69.8588 63.243C70.3276 62.7493 70.8479 62.3288 71.4239 61.9813C72.6174 61.2594 73.9798 60.8817 75.3663 60.8883C76.4348 60.8883 77.4418 61.0955 78.3812 61.5161C79.3207 61.9346 80.1389 62.5096 80.8361 63.243C82.3051 64.7969 83.1171 66.8799 83.0963 69.0415C83.1013 70.4953 82.7372 71.9256 82.0396 73.1923C81.3788 74.3915 80.4256 75.3952 79.273 76.1057C78.0922 76.8278 76.742 77.2084 75.3663 77.2069C74.6631 77.2092 73.9628 77.1135 73.2849 76.9225C71.982 76.554 70.7996 75.8348 69.8608 74.84C69.3923 74.3465 68.9878 73.7934 68.6572 73.1943C67.9592 71.927 67.5944 70.4941 67.5986 69.0395ZM71.9065 69.0395C71.9065 69.588 71.986 70.098 72.1468 70.5754C72.3057 71.0509 72.5361 71.4633 72.832 71.8107C73.1414 72.1753 73.5255 72.4657 73.957 72.6613C74.3884 72.8569 74.8567 72.9529 75.3286 72.9424C75.7914 72.9517 76.2504 72.8552 76.672 72.6597C77.0937 72.4643 77.4673 72.1749 77.7655 71.8128C78.0535 71.4633 78.274 71.0529 78.4269 70.5734C78.5798 70.098 78.6573 69.586 78.6573 69.0395C78.6573 68.4929 78.5779 68.0033 78.4269 67.5238C78.2841 67.0634 78.0599 66.6337 77.7655 66.256C77.4743 65.8817 77.103 65.5808 76.6801 65.3765C76.2572 65.1722 75.7942 65.07 75.3266 65.0777C74.8354 65.0709 74.3491 65.1786 73.9045 65.3926C73.4907 65.5985 73.125 65.893 72.832 66.256C72.5361 66.6217 72.3077 67.0443 72.1468 67.5238C71.9846 68.0118 71.9033 68.5241 71.9065 69.0395ZM84.5521 61.3576C84.6444 61.2721 84.7565 61.2119 84.8778 61.1829C84.9841 61.1589 85.0927 61.1466 85.2015 61.1463H86.9831C87.1029 61.1433 87.2218 61.1684 87.3306 61.2199C87.4395 61.2713 87.5353 61.3476 87.6107 61.4429C87.6834 61.537 87.7417 61.6418 87.7835 61.7538C87.8252 61.8696 87.8669 61.9895 87.9066 62.1134L88.2721 63.6981C88.3912 63.4442 88.5342 63.1516 88.703 62.8245C88.8719 62.4994 89.0963 62.1947 89.3783 61.9102C89.6564 61.6258 90.0059 61.386 90.427 61.191C90.848 60.996 91.3744 60.9005 92.002 60.9005C93.0089 60.9005 93.8908 61.124 94.6475 61.575C95.4022 62.026 96.0239 62.6315 96.5104 63.3913C96.9051 62.7386 97.4329 62.1808 98.0576 61.7558C98.4211 61.5079 98.8342 61.3027 99.3029 61.1422C99.7716 60.9797 100.288 60.8984 100.856 60.8984C101.752 60.8984 102.554 61.0813 103.259 61.445C103.962 61.8086 104.56 62.3044 105.053 62.9322C105.543 63.56 105.917 64.2934 106.175 65.1325C106.429 65.9716 106.558 66.8696 106.558 67.8225V75.9615C106.558 76.2764 106.493 76.5141 106.364 76.6767C106.232 76.8372 106.026 76.9184 105.744 76.9184H103.017C102.679 76.9184 102.447 76.8575 102.322 76.7356C102.195 76.6177 102.131 76.3841 102.131 76.0346V67.8205C102.131 67.4629 102.08 67.1317 101.972 66.8249C101.874 66.532 101.724 66.2601 101.529 66.0224C101.34 65.795 101.105 65.6126 100.84 65.4881C100.556 65.3571 100.248 65.2913 99.9365 65.295C99.6386 65.295 99.3546 65.358 99.0864 65.482C98.8192 65.6045 98.5782 65.7799 98.3774 65.998C98.1658 66.2284 97.9993 66.498 97.8868 66.7924C97.7619 67.1192 97.6998 67.4676 97.7041 67.8184V75.9595C97.7041 76.2744 97.6406 76.5121 97.5095 76.6726C97.3784 76.8351 97.1718 76.9164 96.8898 76.9164H94.1649C93.8272 76.9164 93.5929 76.8554 93.4697 76.7335C93.3426 76.6137 93.279 76.38 93.279 76.0326V67.8164C93.279 67.4608 93.2314 67.1297 93.1321 66.8209C93.0408 66.5291 92.8966 66.2575 92.707 66.0204C92.5174 65.786 92.2781 65.5987 92.0073 65.4727C91.7366 65.3467 91.4413 65.2853 91.144 65.293C90.8619 65.293 90.5839 65.354 90.3098 65.4718C90.0379 65.5939 89.7907 65.7668 89.5809 65.9818C89.3624 66.2012 89.1837 66.4653 89.0367 66.7701C88.888 67.0899 88.8017 67.4363 88.7825 67.79V75.992C88.7825 76.1342 88.7567 76.2744 88.705 76.4146C88.6629 76.5441 88.5833 76.6575 88.4766 76.7396C88.3871 76.7995 88.2894 76.8454 88.1867 76.8758C88.0841 76.902 87.9786 76.9143 87.8729 76.9123H85.2055C84.8679 76.9123 84.6236 76.827 84.4726 76.6523C84.3164 76.4563 84.2372 76.2079 84.2502 75.9554V62.0585C84.2502 61.9021 84.282 61.7558 84.3495 61.6238C84.4125 61.4965 84.5088 61.3896 84.6276 61.3149L84.5561 61.3515L84.5521 61.3576ZM108.191 73.3386C108.191 73.172 108.232 73.0399 108.32 72.9404C108.407 72.8408 108.538 72.792 108.711 72.792H111.835C111.97 72.792 112.093 72.8408 112.209 72.9404C112.324 73.0419 112.379 73.172 112.379 73.3386V76.3455C112.381 76.4903 112.334 76.6313 112.244 76.7437C112.153 76.8595 112.016 76.9184 111.835 76.9184H108.711C108.364 76.9184 108.191 76.7274 108.191 76.3455V73.3386ZM129.5 76.0001C129.5 76.1423 129.476 76.2744 129.43 76.4044C129.385 76.5298 129.302 76.6368 129.192 76.7092C129.11 76.7973 129.003 76.8576 128.886 76.8819C128.786 76.9054 128.683 76.9183 128.58 76.9205H126.254C126.117 76.9253 125.98 76.9018 125.851 76.8514C125.754 76.8098 125.67 76.7433 125.605 76.6584C125.537 76.566 125.483 76.4632 125.446 76.3536C125.399 76.2241 125.353 76.094 125.309 75.9635L124.967 75.031C124.755 75.2545 124.523 75.4922 124.272 75.7461C124.014 76.0036 123.735 76.238 123.438 76.4471C123.131 76.6653 122.801 76.8467 122.453 76.9875C122.093 77.1335 121.708 77.2073 121.321 77.2049C120.302 77.2082 119.294 77.0001 118.356 76.5933C117.418 76.1865 116.571 75.5893 115.865 74.838C114.918 73.8286 114.24 72.5877 113.895 71.2337C113.712 70.5174 113.621 69.7798 113.625 69.0395C113.606 66.8815 114.412 64.8013 115.869 63.241C116.56 62.5096 117.375 61.9326 118.312 61.514C119.261 61.0919 120.286 60.8774 121.321 60.8842C121.808 60.8842 122.256 60.9634 122.666 61.1158C123.075 61.2682 123.446 61.4693 123.782 61.7192C124.114 61.9652 124.418 62.248 124.689 62.5624C124.961 62.8773 125.206 63.1963 125.416 63.5214L125.875 62.0179L126.07 61.514C126.107 61.4086 126.164 61.3114 126.237 61.2276C126.296 61.1657 126.372 61.1233 126.455 61.1057C126.575 61.0818 126.698 61.0709 126.82 61.0732H128.58C128.666 61.0732 128.769 61.0854 128.886 61.1097C129.005 61.1361 129.105 61.193 129.194 61.2845C129.297 61.366 129.378 61.4729 129.43 61.5953C129.479 61.7221 129.502 61.8574 129.5 61.9935V76.0001ZM117.873 69.0415C117.873 69.588 117.953 70.098 118.115 70.5754C118.276 71.0509 118.507 71.4633 118.807 71.8128C119.115 72.1738 119.496 72.4619 119.924 72.657C120.352 72.8521 120.817 72.9495 121.285 72.9424C121.778 72.9461 122.267 72.848 122.722 72.6539C123.177 72.4598 123.588 72.1737 123.933 71.8128C124.266 71.4633 124.529 71.0529 124.717 70.5754C124.908 70.1 125.001 69.588 125.001 69.0395C125.001 68.4929 124.906 68.0033 124.717 67.5238C124.536 67.0547 124.269 66.6247 123.933 66.256C123.599 65.8916 123.198 65.5981 122.753 65.3926C122.291 65.1798 121.79 65.0723 121.283 65.0777C120.757 65.0777 120.306 65.1813 119.885 65.3926C119.47 65.5998 119.103 65.894 118.807 66.256C118.501 66.6312 118.267 67.0611 118.115 67.5238C117.952 68.0117 117.871 68.526 117.873 69.0415ZM131.192 62.0565C131.192 61.9143 131.222 61.7802 131.281 61.6502C131.332 61.5337 131.406 61.4297 131.5 61.3454C131.686 61.2104 131.909 61.1367 132.137 61.1341H133.919C134.068 61.1341 134.187 61.1646 134.276 61.2215C134.36 61.2804 134.435 61.3556 134.495 61.445C134.554 61.5364 134.604 61.64 134.646 61.7558C134.689 61.8716 134.741 61.9895 134.805 62.1053C134.821 62.1378 134.852 62.219 134.9 62.347L135.053 62.7696L135.212 63.2044L135.311 63.4726C135.549 63.1983 135.774 62.9119 135.99 62.6091C136.207 62.3064 136.435 62.026 136.68 61.77C136.924 61.512 137.196 61.3027 137.494 61.1361C137.794 60.9695 138.149 60.8883 138.556 60.8883C138.966 60.8883 139.363 60.9208 139.696 60.9878C140.032 61.0549 140.348 61.1504 140.646 61.2804C140.944 61.4084 141.242 61.573 141.538 61.77C141.833 61.9712 142.153 62.2028 142.499 62.4669C143.043 62.7737 143.144 63.2288 142.807 63.8343L141.734 65.7603C141.607 65.9849 141.399 66.1496 141.154 66.2195C140.901 66.2749 140.637 66.2353 140.409 66.1077C140.111 65.7902 139.762 65.5276 139.377 65.3316C139.002 65.1558 138.593 65.0683 138.181 65.0756C137.873 65.0756 137.605 65.1224 137.373 65.2138C137.142 65.3044 136.928 65.4349 136.741 65.5998C136.541 65.7759 136.363 65.9766 136.211 66.1971C136.044 66.4267 135.879 66.6847 135.714 66.9671V75.9635C135.714 76.2784 135.641 76.5182 135.496 76.6787C135.349 76.8412 135.109 76.9225 134.771 76.9225H132.113C131.498 76.9225 131.192 76.6015 131.192 75.9635V62.0565Z" fill="#F4F4F4"/>
</g>
</svg>
