<svg width="57" height="71" viewBox="0 0 57 71" fill="none" xmlns="http://www.w3.org/2000/svg">
<path d="M28.2353 -6.10352e-05C9.42353 16.0588 0 29.9294 0 41.647C0 59.2235 13.4118 70.5882 28.2353 70.5882C43.0588 70.5882 56.4706 59.2235 56.4706 41.647C56.4706 29.9294 47.0471 16.0588 28.2353 -6.10352e-05ZM13.5176 42.3529C14.8235 42.3529 15.8824 43.2705 16.1294 44.5411C17.5765 52.3764 24.1765 55.0588 28.9765 54.6705C30.4941 54.5999 31.7647 55.7999 31.7647 57.3176C31.7647 58.7294 30.6353 59.8941 29.2235 59.9646C21.7059 60.4235 12.9176 56.1176 10.9059 45.4235C10.6235 43.8352 11.8941 42.3529 13.5176 42.3529Z" fill="#0EA5E9"/>
</svg>
