<svg width="83" height="71" viewBox="0 0 83 71" fill="none" xmlns="http://www.w3.org/2000/svg">
<path d="M52.043 70.5882C50.0238 70.5882 48.2959 69.8707 46.8593 68.4357C45.4202 66.9983 44.7006 65.2711 44.7006 63.2543V59.5874H59.3854V63.2543C59.3854 65.2711 58.667 66.9983 57.2304 68.4357C55.7913 69.8707 54.0621 70.5882 52.043 70.5882ZM30.0158 70.5882C27.9967 70.5882 26.2688 69.8707 24.8321 68.4357C23.393 66.9983 22.6734 65.2711 22.6734 63.2543V55.9205H3.67502C2.20654 55.9205 1.13578 55.2788 0.462723 53.9954C-0.210329 52.7119 -0.149142 51.4591 0.646283 50.2368L11.1092 33.919C9.64071 33.919 8.60054 33.2614 7.98867 31.9462C7.3768 30.6334 7.49918 29.3659 8.35579 28.1436L26.9871 1.55838C27.7213 0.519419 28.7309 -6.10352e-05 30.0158 -6.10352e-05C31.3007 -6.10352e-05 32.3103 0.519419 33.0446 1.55838L51.6759 28.1436C52.5325 29.3659 52.6549 30.6334 52.043 31.9462C51.4311 33.2614 50.391 33.919 48.9225 33.919L59.3854 50.2368C60.0584 51.2757 60.0743 52.4834 59.4331 53.8597C58.7894 55.2335 57.7639 55.9205 56.3566 55.9205H37.3582V63.2543C37.3582 65.2711 36.6399 66.9983 35.2032 68.4357C33.7641 69.8707 32.035 70.5882 30.0158 70.5882ZM62.5977 55.9205C63.2095 55.3093 63.6219 54.2863 63.8349 52.8513C64.0502 51.4138 63.7908 50.1145 63.0566 48.9533L54.3375 35.2941C55.2553 34.4384 55.8366 33.1086 56.0813 31.3044C56.3261 29.5028 55.9589 27.8991 54.9799 26.4934L43.3239 9.80895L49.0143 1.55838C49.7485 0.519419 50.7581 -6.10352e-05 52.043 -6.10352e-05C53.3279 -6.10352e-05 54.3375 0.519419 55.0717 1.55838L73.703 28.1436C74.5596 29.3659 74.682 30.6334 74.0702 31.9462C73.4583 33.2614 72.4181 33.919 70.9496 33.919L81.4125 50.2368C82.208 51.4591 82.2692 52.7119 81.5961 53.9954C80.923 55.2788 79.8523 55.9205 78.3838 55.9205H62.5977Z" fill="#22C55E"/>
</svg>
