<svg width="60" height="71" viewBox="0 0 60 71" fill="none" xmlns="http://www.w3.org/2000/svg">
<path d="M29.5588 70.5882C28.5588 70.5882 27.7212 70.2494 27.0459 69.5717C26.3682 68.8964 26.0294 68.0588 26.0294 67.0588V56.4705H10.5882C9.88235 56.4705 9.19059 56.3235 8.51294 56.0294C7.83765 55.7352 7.26471 55.3529 6.79412 54.8823L1.5 49.5882C0.970589 49.0588 0.588235 48.4705 0.352941 47.8235C0.117647 47.1764 0 46.5294 0 45.8823C0 45.2352 0.117647 44.5882 0.352941 43.9411C0.588235 43.2941 0.970589 42.7058 1.5 42.1764L6.79412 36.8823C7.26471 36.4117 7.83765 36.0294 8.51294 35.7352C9.19059 35.4411 9.88235 35.2941 10.5882 35.2941H26.0294V28.2352H6.61765C5.14706 28.2352 3.89765 27.7199 2.86941 26.6894C1.83882 25.6611 1.32353 24.4117 1.32353 22.9411V12.3529C1.32353 10.8823 1.83882 9.63288 2.86941 8.60465C3.89765 7.57406 5.14706 7.05876 6.61765 7.05876H26.0294V3.52935C26.0294 2.52935 26.3682 1.69053 27.0459 1.01288C27.7212 0.337586 28.5588 -6.10352e-05 29.5588 -6.10352e-05C30.5588 -6.10352e-05 31.3976 0.337586 32.0753 1.01288C32.7506 1.69053 33.0882 2.52935 33.0882 3.52935V7.05876H48.5294C49.2353 7.05876 49.9259 7.20582 50.6012 7.49994C51.2788 7.79406 51.8529 8.17641 52.3235 8.647L57.6176 13.9411C58.1471 14.4705 58.5294 15.0588 58.7647 15.7058C59 16.3529 59.1176 16.9999 59.1176 17.647C59.1176 18.2941 59 18.9411 58.7647 19.5882C58.5294 20.2352 58.1471 20.8235 57.6176 21.3529L52.3235 26.647C51.8529 27.1176 51.2788 27.4999 50.6012 27.7941C49.9259 28.0882 49.2353 28.2352 48.5294 28.2352H33.0882V35.2941H52.5C53.9706 35.2941 55.22 35.8093 56.2482 36.8399C57.2788 37.8682 57.7941 39.1176 57.7941 40.5882V51.1764C57.7941 52.647 57.2788 53.8964 56.2482 54.9246C55.22 55.9552 53.9706 56.4705 52.5 56.4705H33.0882V67.0588C33.0882 68.0588 32.7506 68.8964 32.0753 69.5717C31.3976 70.2494 30.5588 70.5882 29.5588 70.5882Z" fill="#8B5CF6"/>
</svg>
