<svg width="22" height="36" viewBox="0 0 22 36" fill="none" xmlns="http://www.w3.org/2000/svg">
<path d="M16.6103 7.02H20.7628C21.2213 7.02 21.5933 6.67056 21.5933 6.24V0.98514C21.5933 0.57642 21.2586 0.23634 20.8251 0.20748C19.5038 0.11934 16.9225 0 15.0663 0C9.96615 0 6.6441 2.8704 6.6441 8.08704V13.26H0.830513C0.37207 13.26 0 13.6094 0 14.04V19.5C0 19.9306 0.37207 20.28 0.830513 20.28H6.6441V35.1C6.6441 35.5306 7.01617 35.88 7.47461 35.88H13.2882C13.7466 35.88 14.1187 35.5306 14.1187 35.1V20.28H20.1167C20.5402 20.28 20.8957 19.9813 20.9422 19.5858L21.5883 14.1258C21.6432 13.664 21.2578 13.26 20.7628 13.26H14.1187V9.36C14.1187 8.06754 15.2341 7.02 16.6103 7.02Z" fill="white"/>
</svg>
