<svg width="35" height="34" viewBox="0 0 35 34" fill="none" xmlns="http://www.w3.org/2000/svg">
<path d="M1.99933 14.5596C0.894762 14.5585 -0.000669343 15.453 -0.000669343 16.5576C-0.000669343 17.6621 0.894762 18.5585 1.99933 18.5596V16.5596V14.5596ZM32.2539 16.5911L33.6416 18.0328C34.0329 17.6562 34.2539 17.1365 34.2539 16.5932C34.2539 16.0498 34.0329 15.5297 33.6416 15.1523L32.2539 16.5911ZM18.5143 0.561222C17.7189 -0.206007 16.4528 -0.183795 15.6864 0.610833C14.92 1.40546 14.9435 2.6716 15.7389 3.43883L17.1266 2.00002L18.5143 0.561222ZM15.7389 29.709C14.9435 30.4746 14.92 31.7407 15.6864 32.5369C16.4528 33.3331 17.7189 33.358 18.5143 32.5924L17.1266 31.1507L15.7389 29.709ZM1.99933 16.5596V18.5596L32.2539 18.5911V16.5911V14.5911L1.99933 14.5596V16.5596ZM17.1266 2.00002L15.7389 3.43883L30.8662 18.0299L32.2539 16.5911L33.6416 15.1523L18.5143 0.561222L17.1266 2.00002ZM32.2539 16.5911L30.8662 15.1494L15.7389 29.709L17.1266 31.1507L18.5143 32.5924L33.6416 18.0328L32.2539 16.5911Z" fill="#00A0E0"/>
</svg>
