<svg width="38" height="36" viewBox="0 0 38 36" fill="none" xmlns="http://www.w3.org/2000/svg">
<path d="M10.4258 0C4.66866 0 0 4.38471 0 9.79167V25.4583C0 30.8653 4.66866 35.25 10.4258 35.25H27.107C32.8641 35.25 37.5328 30.8653 37.5328 25.4583V9.79167C37.5328 4.38471 32.8641 0 27.107 0H10.4258ZM31.2773 3.91667C32.4283 3.91667 33.3625 4.794 33.3625 5.875C33.3625 6.956 32.4283 7.83333 31.2773 7.83333C30.1263 7.83333 29.1922 6.956 29.1922 5.875C29.1922 4.794 30.1263 3.91667 31.2773 3.91667ZM18.7664 7.83333C24.5235 7.83333 29.1922 12.218 29.1922 17.625C29.1922 23.032 24.5235 27.4167 18.7664 27.4167C13.0093 27.4167 8.34062 23.032 8.34062 17.625C8.34062 12.218 13.0093 7.83333 18.7664 7.83333ZM18.7664 11.75C17.1073 11.75 15.5162 12.369 14.3431 13.4707C13.17 14.5725 12.5109 16.0669 12.5109 17.625C12.5109 19.1831 13.17 20.6775 14.3431 21.7793C15.5162 22.881 17.1073 23.5 18.7664 23.5C20.4254 23.5 22.0165 22.881 23.1897 21.7793C24.3628 20.6775 25.0219 19.1831 25.0219 17.625C25.0219 16.0669 24.3628 14.5725 23.1897 13.4707C22.0165 12.369 20.4254 11.75 18.7664 11.75Z" fill="white"/>
</svg>
