<svg width="50" height="71" viewBox="0 0 50 71" fill="none" xmlns="http://www.w3.org/2000/svg">
<path d="M14.1176 67.0588C14.1176 68.8235 15.5294 70.5882 17.6471 70.5882H31.7647C33.8824 70.5882 35.2941 68.8235 35.2941 67.0588V63.5294H14.1176V67.0588ZM24.7059 -6.10352e-05C10.9412 -6.10352e-05 0 10.9411 0 24.7058C0 33.1764 4.23529 40.5882 10.5882 44.8235V52.9411C10.5882 54.7058 12 56.4705 14.1176 56.4705H35.2941C37.4118 56.4705 38.8235 54.7058 38.8235 52.9411V44.8235C45.1765 40.2352 49.4118 32.8235 49.4118 24.7058C49.4118 10.9411 38.4706 -6.10352e-05 24.7059 -6.10352e-05Z" fill="#F7B340"/>
</svg>
