<svg width="35" height="31" viewBox="0 0 35 31" fill="none" xmlns="http://www.w3.org/2000/svg">
<path d="M33.25 0H7.91667C7.49674 0 7.09401 0.166815 6.79708 0.463748C6.50015 0.76068 6.33333 1.16341 6.33333 1.58333V9.5H1.58333C1.16341 9.5 0.76068 9.66682 0.463748 9.96375C0.166815 10.2607 0 10.6634 0 11.0833V25.3333C0 26.5931 0.500445 27.8013 1.39124 28.6921C2.28204 29.5829 3.49022 30.0833 4.75 30.0833H30.0833C31.3431 30.0833 32.5513 29.5829 33.4421 28.6921C34.3329 27.8013 34.8333 26.5931 34.8333 25.3333V1.58333C34.8333 1.16341 34.6665 0.76068 34.3696 0.463748C34.0727 0.166815 33.6699 0 33.25 0ZM6.33333 25.3333C6.33333 25.7533 6.16652 26.156 5.86959 26.4529C5.57265 26.7499 5.16993 26.9167 4.75 26.9167C4.33007 26.9167 3.92735 26.7499 3.63041 26.4529C3.33348 26.156 3.16667 25.7533 3.16667 25.3333V12.6667H6.33333V25.3333ZM12.6667 8.55C12.6667 8.17207 12.8168 7.80961 13.084 7.54237C13.3513 7.27513 13.7137 7.125 14.0917 7.125H17.575C17.9529 7.125 18.3154 7.27513 18.5826 7.54237C18.8499 7.80961 19 8.17207 19 8.55V15.2C19 15.5779 18.8499 15.9404 18.5826 16.2076C18.3154 16.4749 17.9529 16.625 17.575 16.625H14.0917C13.7137 16.625 13.3513 16.4749 13.084 16.2076C12.8168 15.9404 12.6667 15.5779 12.6667 15.2V8.55ZM28.025 22.4833C27.7327 22.7817 27.3343 22.9524 26.9167 22.9583H14.25C13.8301 22.9583 13.4273 22.7915 13.1304 22.4946C12.8335 22.1977 12.6667 21.7949 12.6667 21.375C12.6859 20.9613 12.8589 20.5697 13.1518 20.2768C13.4447 19.9839 13.8363 19.8109 14.25 19.7917H26.9167C27.3366 19.7917 27.7393 19.9585 28.0363 20.2554C28.3332 20.5523 28.5 20.9551 28.5 21.375C28.494 21.7926 28.3233 22.191 28.025 22.4833ZM28.025 16.15C27.7327 16.4483 27.3343 16.6191 26.9167 16.625H23.75C23.3301 16.625 22.9273 16.4582 22.6304 16.1613C22.3335 15.8643 22.1667 15.4616 22.1667 15.0417C22.1859 14.628 22.3589 14.2363 22.6518 13.9435C22.9447 13.6506 23.3363 13.4776 23.75 13.4583H26.9167C27.3366 13.4583 27.7393 13.6251 28.0363 13.9221C28.3332 14.219 28.5 14.6217 28.5 15.0417C28.494 15.4593 28.3233 15.8577 28.025 16.15ZM28.025 9.81667C27.7327 10.115 27.3343 10.2857 26.9167 10.2917H23.75C23.3301 10.2917 22.9273 10.1249 22.6304 9.82792C22.3335 9.53099 22.1667 9.12826 22.1667 8.70833C22.1859 8.29462 22.3589 7.90299 22.6518 7.61013C22.9447 7.31728 23.3363 7.14427 23.75 7.125H26.9167C27.3366 7.125 27.7393 7.29182 28.0363 7.58875C28.3332 7.88568 28.5 8.28841 28.5 8.70833C28.494 9.12597 28.3233 9.52433 28.025 9.81667Z" fill="black"/>
</svg>
