<svg width="71" height="71" viewBox="0 0 71 71" fill="none" xmlns="http://www.w3.org/2000/svg">
<path d="M31.7647 56.4705H38.8235V49.4117H31.7647V56.4705ZM35.2941 -6.10352e-05C15.8118 -6.10352e-05 0 15.8117 0 35.2941C0 54.7764 15.8118 70.5882 35.2941 70.5882C54.7765 70.5882 70.5882 54.7764 70.5882 35.2941C70.5882 15.8117 54.7765 -6.10352e-05 35.2941 -6.10352e-05ZM35.2941 63.5294C19.7294 63.5294 7.05882 50.8588 7.05882 35.2941C7.05882 19.7294 19.7294 7.05876 35.2941 7.05876C50.8588 7.05876 63.5294 19.7294 63.5294 35.2941C63.5294 50.8588 50.8588 63.5294 35.2941 63.5294ZM35.2941 14.1176C27.4941 14.1176 21.1765 20.4352 21.1765 28.2352H28.2353C28.2353 24.3529 31.4118 21.1764 35.2941 21.1764C39.1765 21.1764 42.3529 24.3529 42.3529 28.2352C42.3529 35.2941 31.7647 34.4117 31.7647 45.8823H38.8235C38.8235 37.9411 49.4118 37.0588 49.4118 28.2352C49.4118 20.4352 43.0941 14.1176 35.2941 14.1176Z" fill="#6D7482"/>
</svg>
