<svg width="60" height="71" viewBox="0 0 60 71" fill="none" xmlns="http://www.w3.org/2000/svg">
<path d="M0 52.0123C0 55.2817 1.44099 58.2167 3.69485 60.26V66.873C3.69485 68.9163 5.35754 70.5882 7.38971 70.5882H11.0846C13.1167 70.5882 14.7794 68.9163 14.7794 66.873V63.1578H44.3382V66.873C44.3382 68.9163 46.0009 70.5882 48.0331 70.5882H51.7279C53.7601 70.5882 55.4228 68.9163 55.4228 66.873V60.26C57.6767 58.2167 59.1176 55.2817 59.1176 52.0123V14.8606C59.1176 1.85752 45.8901 -6.10352e-05 29.5588 -6.10352e-05C13.2276 -6.10352e-05 0 1.85752 0 14.8606V52.0123ZM12.932 55.7275C9.86526 55.7275 7.38971 53.2383 7.38971 50.1547C7.38971 47.0711 9.86526 44.582 12.932 44.582C15.9987 44.582 18.4743 47.0711 18.4743 50.1547C18.4743 53.2383 15.9987 55.7275 12.932 55.7275ZM46.1857 55.7275C43.1189 55.7275 40.6434 53.2383 40.6434 50.1547C40.6434 47.0711 43.1189 44.582 46.1857 44.582C49.2524 44.582 51.7279 47.0711 51.7279 50.1547C51.7279 53.2383 49.2524 55.7275 46.1857 55.7275ZM51.7279 33.4365H7.38971V14.8606H51.7279V33.4365Z" fill="#A855F7"/>
</svg>
