<svg width="63" height="71" viewBox="0 0 63 71" fill="none" xmlns="http://www.w3.org/2000/svg">
<path d="M62.6471 27.4509H50.9007V22.9803C57.6353 21.2156 62.6471 15.1372 62.6471 7.84308H50.9007V3.92151C50.9007 1.76464 49.1388 -6.10352e-05 46.9853 -6.10352e-05H15.6618C13.5083 -6.10352e-05 11.7463 1.76464 11.7463 3.92151V7.84308H0C0 15.1372 5.01176 21.2156 11.7463 22.9803V27.4509H0C0 34.745 5.01176 40.8235 11.7463 42.5882V47.0588H0C0 54.3529 5.01176 60.4313 11.7463 62.196V66.6666C11.7463 68.8235 13.5083 70.5882 15.6618 70.5882H46.9853C49.1388 70.5882 50.9007 68.8235 50.9007 66.6666V62.196C57.6353 60.4313 62.6471 54.3529 62.6471 47.0588H50.9007V42.5882C57.6353 40.8235 62.6471 34.745 62.6471 27.4509ZM31.3235 62.745C26.9774 62.745 23.4926 59.2156 23.4926 54.9019C23.4926 50.5882 26.9774 47.0588 31.3235 47.0588C35.6305 47.0588 39.1544 50.5882 39.1544 54.9019C39.1544 59.2156 35.6697 62.745 31.3235 62.745ZM31.3235 43.1372C26.9774 43.1372 23.4926 39.6078 23.4926 35.2941C23.4926 30.9803 26.9774 27.4509 31.3235 27.4509C35.6305 27.4509 39.1544 30.9803 39.1544 35.2941C39.1544 39.6078 35.6697 43.1372 31.3235 43.1372ZM31.3235 23.5294C26.9774 23.5294 23.4926 19.9999 23.4926 15.6862C23.4926 11.3333 26.9774 7.84308 31.3235 7.84308C35.6305 7.84308 39.1544 11.3333 39.1544 15.6862C39.1544 19.9999 35.6697 23.5294 31.3235 23.5294Z" fill="#06B6D4"/>
</svg>
