<svg width="41" height="29" viewBox="0 0 41 29" fill="none" xmlns="http://www.w3.org/2000/svg">
<path d="M39.2584 4.84C38.885 2.90469 37.1062 1.49531 35.0419 1.05531C31.9528 0.44 26.2357 0 20.0501 0C13.8682 0 8.05957 0.44 4.96677 1.05531C2.90613 1.49531 1.12365 2.81531 0.750323 4.84C0.373332 7.04 0 10.12 0 14.08C0 18.04 0.373332 21.12 0.841826 23.32C1.21882 25.2553 2.99763 26.6647 5.05828 27.1047C8.33774 27.72 13.9597 28.16 20.1453 28.16C26.3308 28.16 31.9528 27.72 35.2322 27.1047C37.2929 26.6647 39.0717 25.3447 39.4487 23.32C39.822 21.12 40.2905 17.9506 40.3857 14.08C40.1954 10.12 39.7269 7.04 39.2584 4.84ZM14.9918 20.24V7.92L26.4223 14.08L14.9918 20.24Z" fill="white"/>
</svg>
